GIL11_slow2_ik
nRows=3
nColumns=375

# SIMM Motion File Header:
name GIL11_slow2_ik
datacolumns 375
datarows 3
otherdata 1
range 0.59167000 0.60833000
endheader
time	pelvis_tx	pelvis_ty	pelvis_tz	pelvis_tilt	pelvis_list	pelvis_rotation	hip_flexion_r	hip_adduction_r	hip_rotation_r	knee_angle_r	ankle_angle_r	hip_flexion_l	hip_adduction_l	hip_rotation_l	knee_angle_l	ankle_angle_l	lumbar_extension	lumbar_bending	lumbar_rotation	subtalar_angle_r	mtp_angle_r	subtalar_angle_l	mtp_angle_l	asis_r_px	asis_r_py	asis_r_pz	asis_l_px	asis_l_py	asis_l_pz	midasis_px	midasis_py	midasis_pz	psis_r_px	psis_r_py	psis_r_pz	psis_l_px	psis_l_py	psis_l_pz	hip_r_px	hip_r_py	hip_r_pz	hip_l_px	hip_l_py	hip_l_pz	midhip_px	midhip_py	midhip_pz	epicondLat_r_px	epicondLat_r_py	epicondLat_r_pz	epicondMed_r_px	epicondMed_r_py	epicondMed_r_pz	thighwand_r_px	thighwand_r_py	thighwand_r_pz	upperleg1_r_px	upperleg1_r_py	upperleg1_r_pz	upperleg2_r_px	upperleg2_r_py	upperleg2_r_pz	malleolusLat_r_px	malleolusLat_r_py	malleolusLat_r_pz	malleolusMedv_r_px	malleolusMedv_r_py	malleolusMedv_r_pz	shankwand_r_px	shankwand_r_py	shankwand_r_pz	lowerleg1_r_px	lowerleg1_r_py	lowerleg1_r_pz	knee_r_px	knee_r_py	knee_r_pz	ankle_r_px	ankle_r_py	ankle_r_pz	toe_r_px	toe_r_py	toe_r_pz	epicondLat_l_px	epicondLat_l_py	epicondLat_l_pz	epicondMed_l_px	epicondMed_l_py	epicondMed_l_pz	thighwand_l_px	thighwand_l_py	thighwand_l_pz	upperleg1_l_px	upperleg1_l_py	upperleg1_l_pz	upperleg2_l_px	upperleg2_l_py	upperleg2_l_pz	malleolusLat_l_px	malleolusLat_l_py	malleolusLat_l_pz	malleolusMedv_l_px	malleolusMedv_l_py	malleolusMedv_l_pz	shankwand_l_px	shankwand_l_py	shankwand_l_pz	lowerleg1_l_px	lowerleg1_l_py	lowerleg1_l_pz	knee_l_px	knee_l_py	knee_l_pz	ankle_l_px	ankle_l_py	ankle_l_pz	toe_l_px	toe_l_py	toe_l_pz	subclavicle_r_px	subclavicle_r_py	subclavicle_r_pz	subclavicle_l_px	subclavicle_l_py	subclavicle_l_pz	neck_px	neck_py	neck_pz	sternalnotch_px	sternalnotch_py	sternalnotch_pz	xyphoidprocess_px	xyphoidprocess_py	xyphoidprocess_pz	midhip_tx	midhip_ty	midhip_tz	hip_r_tx	hip_r_ty	hip_r_tz	hip_l_tx	hip_l_ty	hip_l_tz	knee_r_tx	knee_r_ty	knee_r_tz	knee_l_tx	knee_l_ty	knee_l_tz	ankle_r_tx	ankle_r_ty	ankle_r_tz	ankle_l_tx	ankle_l_ty	ankle_l_tz	midasis_tx	midasis_ty	midasis_tz	asis_r_tx	asis_r_ty	asis_r_tz	asis_l_tx	asis_l_ty	asis_l_tz	psis_r_tx	psis_r_ty	psis_r_tz	psis_l_tx	psis_l_ty	psis_l_tz	epicondLat_r_tx	epicondLat_r_ty	epicondLat_r_tz	epicondLat_l_tx	epicondLat_l_ty	epicondLat_l_tz	epicondMed_r_tx	epicondMed_r_ty	epicondMed_r_tz	epicondMed_l_tx	epicondMed_l_ty	epicondMed_l_tz	malleolusLat_r_tx	malleolusLat_r_ty	malleolusLat_r_tz	malleolusLat_l_tx	malleolusLat_l_ty	malleolusLat_l_tz	malleolusMedv_r_tx	malleolusMedv_r_ty	malleolusMedv_r_tz	malleolusMedv_l_tx	malleolusMedv_l_ty	malleolusMedv_l_tz	neck_tx	neck_ty	neck_tz	subclavicle_r_tx	subclavicle_r_ty	subclavicle_r_tz	subclavicle_l_tx	subclavicle_l_ty	subclavicle_l_tz	sternalnotch_tx	sternalnotch_ty	sternalnotch_tz	xyphoidprocess_tx	xyphoidprocess_ty	xyphoidprocess_tz	thighwand_r_tx	thighwand_r_ty	thighwand_r_tz	thighwand_l_tx	thighwand_l_ty	thighwand_l_tz	upperleg1_r_tx	upperleg1_r_ty	upperleg1_r_tz	upperleg1_l_tx	upperleg1_l_ty	upperleg1_l_tz	upperleg2_r_tx	upperleg2_r_ty	upperleg2_r_tz	upperleg2_l_tx	upperleg2_l_ty	upperleg2_l_tz	shankwand_r_tx	shankwand_r_ty	shankwand_r_tz	shankwand_l_tx	shankwand_l_ty	shankwand_l_tz	lowerleg1_r_tx	lowerleg1_r_ty	lowerleg1_r_tz	lowerleg1_l_tx	lowerleg1_l_ty	lowerleg1_l_tz	toe_r_tx	toe_r_ty	toe_r_tz	toe_l_tx	toe_l_ty	toe_l_tz	ground_force_vx	ground_force_vy	ground_force_vz	ground_force_px	ground_force_py	ground_force_pz	ground_force_vx	ground_force_vy	ground_force_vz	ground_force_px	ground_force_py	ground_force_pz	ground_torque_x	ground_torque_y	ground_torque_z	ground_torque_x	ground_torque_y	ground_torque_z	ground_marker_px	ground_marker_py	ground_marker_pz	ground_marker_px	ground_marker_py	ground_marker_pz	ground_marker_px	ground_marker_py	ground_marker_pz	ground_marker_px	ground_marker_py	ground_marker_pz	ground_marker_px	ground_marker_py	ground_marker_pz	ground_marker_px	ground_marker_py	ground_marker_pz	ground_marker_px	ground_marker_py	ground_marker_pz	ground_marker_px	ground_marker_py	ground_marker_pz	ground_marker_px	ground_marker_py	ground_marker_pz	ground_marker_px	ground_marker_py	ground_marker_pz	ground_marker_px	ground_marker_py	ground_marker_pz	ground_marker_px	ground_marker_py	ground_marker_pz	ground_marker_px	ground_marker_py	ground_marker_pz	ground_marker_px	ground_marker_py	ground_marker_pz	ground_marker_px	ground_marker_py	ground_marker_pz	ground_marker_px	ground_marker_py	ground_marker_pz	ground_marker_px	ground_marker_py	ground_marker_pz	ground_marker_px	ground_marker_py	ground_marker_pz	ground_marker_px	ground_marker_py	ground_marker_pz	ground_marker_px	ground_marker_py	ground_marker_pz	ground_marker_px	ground_marker_py	ground_marker_pz	ground_marker_px	ground_marker_py	ground_marker_pz	ground_marker_px	ground_marker_py	ground_marker_pz	ground_marker_px	ground_marker_py	ground_marker_pz	ground_marker_px	ground_marker_py	ground_marker_pz	ground_marker_px	ground_marker_py	ground_marker_pz	ground_marker_px	ground_marker_py	ground_marker_pz	ground_marker_px	ground_marker_py	ground_marker_pz	ground_marker_px	ground_marker_py	ground_marker_pz	ground_marker_px	ground_marker_py	ground_marker_pz	ground_marker_px	ground_marker_py	ground_marker_pz	ground_marker_px	ground_marker_py	ground_marker_pz	ground_marker_px	ground_marker_py	ground_marker_pz	ground_marker_px	ground_marker_py	ground_marker_pz	ground_marker_px	ground_marker_py	ground_marker_pz	ground_marker_px	ground_marker_py	ground_marker_pz	ground_marker_px	ground_marker_py	ground_marker_pz
      0.59167000	      1.67701416	      0.86240257	     -0.30272663	     -7.74846090	     -0.81512940	      4.13085941	     32.79578528	     -3.79716513	      1.99605228	    -29.18927611	      3.17319156	      2.71370254	      4.22358640	      7.67009982	     -8.06458744	     10.54435576	     -1.34145403	      0.60696766	     -1.21363839	      0.00000000	      0.00000000	      0.00000000	      0.00000000	      1.73198213	      0.84625360	     -0.19559931	      1.71337198	      0.84878131	     -0.43008537	      1.68972644	      0.86065954	     -0.30365323	      1.54356503	      0.94169176	     -0.26456756	      1.53564596	      0.93870847	     -0.31861642	      1.61025226	      0.81135966	     -0.22066192	      1.59900542	      0.81069248	     -0.37370443	      1.60462884	      0.81102607	     -0.29718318	      1.80100839	      0.47060636	     -0.14672368	      1.79265657	      0.46090310	     -0.26309038	      1.88034770	      0.65410555	     -0.24156417	      1.80166446	      0.67805363	     -0.18529669	      1.82645883	      0.59388732	     -0.17829331	      1.73131646	      0.08804520	     -0.12502112	      1.76021689	      0.08322654	     -0.19448924	      1.73008350	      0.17221183	     -0.06554589	      1.73535180	      0.17679388	     -0.10929101	      1.77285337	      0.46760443	     -0.20586313	      1.74751622	      0.09675825	     -0.17441901	      1.84399088	      0.05491312	     -0.10945065	      1.59852970	      0.40937011	     -0.40853908	      1.59183065	      0.42965842	     -0.28649410	      1.64647671	      0.52945503	     -0.50121809	      1.58783906	      0.59006830	     -0.45072440	      1.58689494	      0.50430152	     -0.43011019	      1.46594921	      0.05606502	     -0.36327204	      1.48439630	      0.06644184	     -0.29584232	      1.59778150	      0.15359036	     -0.31957846	      1.55742323	      0.16126488	     -0.32940299	      1.56463156	      0.43533941	     -0.34204833	      1.48217671	      0.07260176	     -0.31411656	      1.58340886	      0.02196521	     -0.34996255	      1.71194194	      1.31766293	     -0.24938187	      1.70855338	      1.31368030	     -0.35515474	      1.58275171	      1.36357227	     -0.29552019	      1.70710772	      1.31206307	     -0.30149618	      1.75430545	      1.24738659	     -0.30440903	      1.60997800	      0.81950800	     -0.29295900	      1.60389200	      0.80300400	     -0.21595400	      1.58802800	      0.80316900	     -0.36725200	      1.77064900	      0.45544400	     -0.19647400	      1.55889300	      0.42517900	     -0.33954900	      1.74549800	      0.08535200	     -0.19607500	      1.47944100	      0.06887800	     -0.30535900	      1.69012200	      0.87189700	     -0.29834400	      1.69861100	      0.87187300	     -0.18000200	      1.68163300	      0.87192000	     -0.41668700	      1.50109700	      0.94181800	     -0.24962700	      1.49405400	      0.93944700	     -0.30358700	      1.77479800	      0.46066400	     -0.13885900	      1.56219600	      0.42069300	     -0.39728100	      1.76789000	      0.44943300	     -0.25282400	      1.57835700	      0.43741700	     -0.27799200	      1.73214400	      0.08630000	     -0.15838200	      1.46582800	      0.06830500	     -0.34296700	      1.75702800	      0.09287300	     -0.22922800	      1.49221200	      0.07665600	     -0.28100200	      1.58307400	      1.37381900	     -0.29526900	      1.71217800	      1.31070100	     -0.24987900	      1.70699600	      1.30486500	     -0.35557600	      1.70601300	      1.30439400	     -0.30198800	      1.74511200	      1.23466400	     -0.30373100	      1.85397200	      0.64241200	     -0.22408200	      1.60548300	      0.54316400	     -0.49420500	      1.77747300	      0.66229700	     -0.16409500	      1.55231600	      0.60148100	     -0.43713200	      1.80320300	      0.57825000	     -0.16228700	      1.55558700	      0.51433800	     -0.41830200	      1.73075300	      0.16645000	     -0.08772200	      1.59682700	      0.17337600	     -0.30960700	      1.73349800	      0.17353900	     -0.13034700	      1.55569100	      0.17985200	     -0.31910100	      1.83923800	      0.05998000	     -0.16755500	      1.57964800	      0.04144300	     -0.34563300	      0.00000000	      0.00000000	      0.00000000	      1.97850293	      0.00000000	     -0.20971873	     16.78847655	    587.71763158	     28.61427395	      1.58594470	      0.00000000	     -0.33699390	      0.00000000	      0.00000000	      0.00000000	      0.00000000	     -1.54264844	      0.00000000	      1.60997784	      0.81950819	     -0.29295897	      1.60389197	      0.80300385	     -0.21595423	      1.58802807	      0.80316937	     -0.36725232	      1.77064884	      0.45544407	     -0.19647399	      1.55889297	      0.42517871	     -0.33954918	      1.74549818	      0.08535177	     -0.19607529	      1.47944129	      0.06887774	     -0.30535895	      1.69012189	      0.87189656	     -0.29834414	      1.69861066	      0.87187332	     -0.18000180	      1.68163311	      0.87191981	     -0.41668651	      1.50109732	      0.94181752	     -0.24962746	      1.49405432	      0.93944693	     -0.30358699	      1.77479815	      0.46066412	     -0.13885859	      1.56219614	      0.42069289	     -0.39728105	      1.76789045	      0.44943258	     -0.25282395	      1.57835698	      0.43741727	     -0.27799192	      1.73214388	      0.08629990	     -0.15838225	      1.46582806	      0.06830457	     -0.34296677	      1.75702822	      0.09287260	     -0.22922778	      1.49221241	      0.07665564	     -0.28100249	      1.58307433	      1.37381864	     -0.29526860	      1.71217752	      1.31070149	     -0.24987939	      1.70699608	      1.30486536	     -0.35557604	      1.70601285	      1.30439425	     -0.30198756	      1.74511158	      1.23466372	     -0.30373076	      1.85397196	      0.64241213	     -0.22408153	      1.60548306	      0.54316407	     -0.49420527	      1.77747321	      0.66229713	     -0.16409519	      1.55231571	      0.60148108	     -0.43713170	      1.80320263	      0.57825011	     -0.16228673	      1.55558681	      0.51433778	     -0.41830194	      1.73075318	      0.16645008	     -0.08772170	      1.59682715	      0.17337646	     -0.30960736	      1.73349845	      0.17353912	     -0.13034706	      1.55569124	      0.17985171	     -0.31910071	      1.83923781	      0.05998044	     -0.16755521	      1.57964826	      0.04144313	     -0.34563261
      0.60000000	      1.68308289	      0.86167887	     -0.30237107	     -7.80095424	     -0.88837650	      4.21523076	     32.97139258	     -3.71825044	      1.98969716	    -27.29642037	      2.96965265	      2.20204493	      4.14383501	      7.80848140	     -7.79936188	     10.71164613	     -1.29152217	      0.66649849	     -1.38984093	      0.00000000	      0.00000000	      0.00000000	      0.00000000	      1.73821049	      0.84559257	     -0.19531638	      1.71921999	      0.84788763	     -0.42977433	      1.69579200	      0.85992292	     -0.30331655	      1.54977059	      0.94113399	     -0.26407908	      1.54176052	      0.93810048	     -0.31811173	      1.61640723	      0.81078623	     -0.22014309	      1.60490997	      0.80996636	     -0.37316625	      1.61065860	      0.81037630	     -0.29665467	      1.80801072	      0.47038731	     -0.14676564	      1.79943069	      0.46071937	     -0.26311868	      1.88677571	      0.65408955	     -0.24169171	      1.80816414	      0.67785277	     -0.18524596	      1.83314392	      0.59373379	     -0.17833353	      1.75146073	      0.08647351	     -0.12596710	      1.78017859	      0.08286897	     -0.19558438	      1.74758036	      0.17037126	     -0.06622638	      1.75247628	      0.17526242	     -0.10998129	      1.77935853	      0.46748543	     -0.20582686	      1.76711033	      0.09589080	     -0.17541309	      1.86517833	      0.05688945	     -0.11106382	      1.60055732	      0.40864815	     -0.40777940	      1.59394198	      0.42906936	     -0.28575202	      1.64975862	      0.52820820	     -0.50047962	      1.59166698	      0.58941817	     -0.45007469	      1.58986810	      0.50367626	     -0.42941395	      1.46619311	      0.05622889	     -0.36230972	      1.48465799	      0.06656527	     -0.29487865	      1.59850187	      0.15311091	     -0.31862516	      1.55818870	      0.16098473	     -0.32847714	      1.56681174	      0.43500831	     -0.34133934	      1.48247964	      0.07272175	     -0.31315902	      1.58358887	      0.02183178	     -0.34899306	      1.71807348	      1.31702902	     -0.24897679	      1.71484997	      1.31299731	     -0.35475296	      1.58896150	      1.36293318	     -0.29533875	      1.71332012	      1.31140538	     -0.30109599	      1.76051409	      1.24672155	     -0.30390470	      1.61654400	      0.81951300	     -0.29265500	      1.60966200	      0.80235200	     -0.21583800	      1.59355800	      0.80249700	     -0.36711100	      1.77719100	      0.45525800	     -0.19753100	      1.56081000	      0.42494900	     -0.33936700	      1.76529300	      0.08390000	     -0.19540700	      1.47962500	      0.06912000	     -0.30506600	      1.69581600	      0.87115800	     -0.29838000	      1.70448900	      0.87115300	     -0.18011200	      1.68714400	      0.87116200	     -0.41664700	      1.50696500	      0.94120900	     -0.24944400	      1.49997300	      0.93881300	     -0.30340400	      1.78144500	      0.46035000	     -0.13991200	      1.56411900	      0.42042000	     -0.39709500	      1.77453200	      0.44816200	     -0.25386600	      1.57849700	      0.43586500	     -0.27858700	      1.75184500	      0.08454700	     -0.15774100	      1.46587800	      0.06863600	     -0.34262700	      1.77567200	      0.09179100	     -0.22884700	      1.49253600	      0.07675400	     -0.28063300	      1.58972900	      1.37320600	     -0.29507700	      1.71783400	      1.30963600	     -0.24954200	      1.71287700	      1.30341600	     -0.35542300	      1.71205000	      1.30356300	     -0.30168900	      1.75040600	      1.23317400	     -0.30311300	      1.85969900	      0.64190300	     -0.22476900	      1.60863400	      0.54256800	     -0.49390700	      1.78353400	      0.66115300	     -0.16559900	      1.55602600	      0.60102500	     -0.43701000	      1.80924400	      0.57731200	     -0.16345000	      1.55785600	      0.51394600	     -0.41866200	      1.74745600	      0.16515200	     -0.08742800	      1.59766600	      0.17300100	     -0.30967000	      1.74937100	      0.17205000	     -0.13028500	      1.55661300	      0.17815300	     -0.31886700	      1.85975000	      0.06172100	     -0.16731300	      1.57966100	      0.04150600	     -0.34552100	      0.00000000	      0.00000000	      0.00000000	      1.97973291	      0.00000000	     -0.20974823	     18.90149559	    587.84594566	     29.23390005	      1.58817798	      0.00000000	     -0.33744955	      0.00000000	      0.00000000	      0.00000000	      0.00000000	     -1.58984326	      0.00000000	      1.61654389	      0.81951308	     -0.29265502	      1.60966218	      0.80235171	     -0.21583803	      1.59355819	      0.80249721	     -0.36711079	      1.77719140	      0.45525759	     -0.19753097	      1.56081021	      0.42494869	     -0.33936659	      1.76529276	      0.08390026	     -0.19540747	      1.47962511	      0.06911986	     -0.30506638	      1.69581616	      0.87115777	     -0.29837972	      1.70448852	      0.87115330	     -0.18011217	      1.68714380	      0.87116224	     -0.41664729	      1.50696492	      0.94120938	     -0.24944398	      1.49997270	      0.93881291	     -0.30340359	      1.78144538	      0.46034995	     -0.13991179	      1.56411874	      0.42041954	     -0.39709473	      1.77453160	      0.44816214	     -0.25386584	      1.57849729	      0.43586549	     -0.27858651	      1.75184500	      0.08454652	     -0.15774132	      1.46587801	      0.06863572	     -0.34262675	      1.77567184	      0.09179135	     -0.22884686	      1.49253607	      0.07675381	     -0.28063348	      1.58972883	      1.37320650	     -0.29507723	      1.71783376	      1.30963612	     -0.24954154	      1.71287727	      1.30341637	     -0.35542268	      1.71204996	      1.30356336	     -0.30168885	      1.75040591	      1.23317385	     -0.30311322	      1.85969889	      0.64190346	     -0.22476870	      1.60863400	      0.54256773	     -0.49390689	      1.78353429	      0.66115332	     -0.16559921	      1.55602586	      0.60102451	     -0.43701044	      1.80924368	      0.57731158	     -0.16345027	      1.55785620	      0.51394618	     -0.41866213	      1.74745643	      0.16515239	     -0.08742812	      1.59766567	      0.17300119	     -0.30966970	      1.74937117	      0.17204995	     -0.13028486	      1.55661321	      0.17815338	     -0.31886688	      1.85974956	      0.06172068	     -0.16731292	      1.57966089	      0.04150604	     -0.34552073
      0.60833000	      1.68901471	      0.86083139	     -0.30204871	     -7.84643974	     -0.96652521	      4.30362430	     33.09546014	     -3.64593885	      2.02716233	    -25.35764296	      2.76327082	      1.69782586	      4.05968086	      7.96868564	     -7.55806794	     10.90018493	     -1.29916990	      0.75104230	     -1.62761193	      0.00000000	      0.00000000	      0.00000000	      0.00000000	      1.74431258	      0.84482203	     -0.19507034	      1.72492206	      0.84686523	     -0.42949787	      1.70172074	      0.85906395	     -0.30301396	      1.55583328	      0.94043940	     -0.26361912	      1.54772811	      0.93735083	     -0.31763447	      1.62243851	      0.81008726	     -0.21964855	      1.61067827	      0.80910228	     -0.37265075	      1.61655839	      0.80959477	     -0.29614965	      1.81466793	      0.46993234	     -0.14677842	      1.80576779	      0.46023989	     -0.26310537	      1.89293638	      0.65371960	     -0.24195032	      1.81445711	      0.67739321	     -0.18528325	      1.83955966	      0.59330574	     -0.17843231	      1.77129280	      0.08515002	     -0.12674510	      1.79973089	      0.08272189	     -0.19652800	      1.76482468	      0.16871252	     -0.06675915	      1.76930365	      0.17388029	     -0.11052693	      1.78545589	      0.46710045	     -0.20573388	      1.78632941	      0.09523009	     -0.17625059	      1.88594642	      0.05914707	     -0.11258168	      1.60257043	      0.40782160	     -0.40702222	      1.59599504	      0.42838111	     -0.28501591	      1.65301801	      0.52685236	     -0.49973374	      1.59544498	      0.58864108	     -0.44944004	      1.59280850	      0.50293302	     -0.42872880	      1.46635871	      0.05630334	     -0.36138361	      1.48481861	      0.06659954	     -0.29394504	      1.59913856	      0.15252290	     -0.31766423	      1.55887619	      0.16060097	     -0.32755850	      1.56895682	      0.43456418	     -0.34064514	      1.48268886	      0.07275186	     -0.31223253	      1.58369536	      0.02163053	     -0.34802694	      1.72434333	      1.31615093	     -0.24844226	      1.72139262	      1.31208435	     -0.35422506	      1.59540093	      1.36217227	     -0.29515865	      1.71972062	      1.31051339	     -0.30057171	      1.76685458	      1.24577962	     -0.30323361	      1.62248300	      0.81882300	     -0.29233900	      1.61549000	      0.80165500	     -0.21571400	      1.59912300	      0.80176800	     -0.36695800	      1.78342100	      0.45495300	     -0.19850400	      1.56281200	      0.42469000	     -0.33917900	      1.78476500	      0.08281400	     -0.19469100	      1.47978000	      0.06937700	     -0.30477100	      1.70155400	      0.87036900	     -0.29842600	      1.71042700	      0.87039300	     -0.18025100	      1.69268200	      0.87034500	     -0.41660100	      1.51291700	      0.94052900	     -0.24919800	      1.50596800	      0.93812500	     -0.30318500	      1.78783300	      0.45994900	     -0.14088800	      1.56614000	      0.42011700	     -0.39690200	      1.77953900	      0.44753900	     -0.25485600	      1.58106200	      0.43519100	     -0.27900800	      1.77119900	      0.08315100	     -0.15706300	      1.46590500	      0.06898700	     -0.34228500	      1.79572000	      0.09104100	     -0.22780600	      1.49281100	      0.07669100	     -0.28026300	      1.59661100	      1.37239100	     -0.29485000	      1.72409200	      1.30916700	     -0.24926100	      1.71897600	      1.30177700	     -0.35554100	      1.71811600	      1.30273800	     -0.30140500	      1.75637400	      1.23201700	     -0.30227200	      1.86532100	      0.64113400	     -0.22555800	      1.61188800	      0.54197000	     -0.49358300	      1.78943000	      0.66029800	     -0.16592200	      1.55996200	      0.60083700	     -0.43683800	      1.81502000	      0.57621900	     -0.16418200	      1.56104700	      0.51412100	     -0.41886600	      1.76374000	      0.16406300	     -0.08710800	      1.59855300	      0.17262200	     -0.30971600	      1.76589000	      0.17122200	     -0.12982800	      1.55677000	      0.17695300	     -0.31874200	      1.87982800	      0.06381200	     -0.16691400	      1.57966900	      0.04158300	     -0.34541800	      0.00000000	      0.00000000	      0.00000000	      1.98086841	      0.00000000	     -0.20987140	     21.04602739	    588.67574021	     29.80156854	      1.59025317	      0.00000000	     -0.33785251	      0.00000000	      0.00000000	      0.00000000	      0.00000000	     -1.64473193	      0.00000000	      1.62248266	      0.81882334	     -0.29233861	      1.61549020	      0.80165458	     -0.21571380	      1.59912288	      0.80176806	     -0.36695832	      1.78342128	      0.45495254	     -0.19850391	      1.56281173	      0.42469022	     -0.33917856	      1.78476536	      0.08281402	     -0.19469063	      1.47978008	      0.06937698	     -0.30477062	      1.70155406	      0.87036884	     -0.29842582	      1.71042657	      0.87039250	     -0.18025082	      1.69268155	      0.87034523	     -0.41660082	      1.51291680	      0.94052911	     -0.24919763	      1.50596809	      0.93812537	     -0.30318549	      1.78783309	      0.45994946	     -0.14088823	      1.56613982	      0.42011717	     -0.39690214	      1.77953947	      0.44753873	     -0.25485554	      1.58106208	      0.43519107	     -0.27900776	      1.77119946	      0.08315060	     -0.15706283	      1.46590519	      0.06898651	     -0.34228510	      1.79572022	      0.09104075	     -0.22780561	      1.49281073	      0.07669096	     -0.28026289	      1.59661090	      1.37239134	     -0.29485029	      1.72409236	      1.30916739	     -0.24926144	      1.71897602	      1.30177689	     -0.35554084	      1.71811569	      1.30273831	     -0.30140471	      1.75637448	      1.23201692	     -0.30227214	      1.86532104	      0.64113444	     -0.22555761	      1.61188841	      0.54196990	     -0.49358270	      1.78942955	      0.66029835	     -0.16592164	      1.55996168	      0.60083687	     -0.43683809	      1.81501997	      0.57621926	     -0.16418247	      1.56104696	      0.51412135	     -0.41886565	      1.76374030	      0.16406327	     -0.08710843	      1.59855270	      0.17262152	     -0.30971566	      1.76588976	      0.17122191	     -0.12982789	      1.55677021	      0.17695265	     -0.31874201	      1.87982833	      0.06381170	     -0.16691360	      1.57966924	      0.04158305	     -0.34541762
